<?xml version="1.0" encoding="UTF-8"?>
<svg id="Layer_1" xmlns="http://www.w3.org/2000/svg" version="1.1" viewBox="0 0 651.31 135.84">
  <!-- Generator: Adobe Illustrator 30.0.0, SVG Export Plug-In . SVG Version: 2.1.1 Build 123)  -->
  <defs>
    <style>
      .st0 {
        fill: #010101;
      }

      .st1 {
        fill: #f47d30;
      }

      .st2 {
        fill: #f47b2f;
      }

      .st3 {
        fill: #ec6608;
      }

      .st4 {
        fill: #2a292d;
      }

      .st5 {
        fill: #a3a5a8;
      }

      .st6 {
        display: none;
      }

      .st7 {
        fill: #999;
      }

      .st8 {
        fill: #999;
      }
    </style>
  </defs>
  <g class="st6">
    <path class="st4" d="M194.16,17.98c-.19.6-6.6,21.58-6.6,21.58h-20.51l6.61-21.58h-23.48s-17.73,57.96-18.07,59.06h23.47c.19-.61,7.58-24.77,7.58-24.77h20.52s-7.25,23.69-7.58,24.77h23.47c.19-.61,17.74-57.96,18.08-59.06h-23.47Z"/>
    <path class="st4" d="M317.58,24.41l-1.08.8,2.21-7.22h-23.47s-17.74,57.96-18.08,59.06h23.48c.18-.61,10.91-35.67,10.91-35.67,1.53-4.96,5.4-8.29,9.65-8.29h6.01c1.91,0,3.39.64,4.29,1.87.67.9,1.01,2.08,1.01,3.45,0,.98-.17,2.06-.52,3.21,0,0-9.46,30.91-10.84,35.43h23.47c.18-.61,12.74-41.63,12.74-41.63.37-1.2.88-3.3.88-5.7s-.54-5.21-2.31-7.61c-2.61-3.53-7.23-5.32-13.74-5.32-12.55,0-20.81,4.77-24.62,7.62Z"/>
    <path class="st4" d="M224.64,22.23c.21.73,3.38,11.69,3.63,12.54,2.07-.86,10.88-4.3,18.48-4.3s11.37.98,12.93,3.08c.79,1.07.91,2.41.39,4.12l-1.47,4.81-.43-.14c-9.87-3.26-17.4-3.15-17.48-3.15-7.84,0-14.89,1.96-20.4,5.66-5.28,3.55-9.04,8.6-10.88,14.6-1.62,5.31-1.22,9.83,1.17,13.06,2.78,3.75,8.27,5.74,15.87,5.74,7.18,0,15-1.86,22.02-5.22l.9-.44s-1.11,3.61-1.37,4.45h23.47c.19-.61,12.5-40.83,12.5-40.83.51-1.69.77-3.3.77-4.83,0-2.56-.73-4.87-2.16-6.81-3.78-5.1-12.48-7.79-25.17-7.79-15.54,0-30.24,4.6-32.79,5.44ZM243.24,51.28c1.79,0,7.92.14,11.69,1.91l.34.16-2.63,8.59-.18.08c-3.74,1.74-9.02,2.93-13.13,2.93s-6.72-.93-8-2.66c-.53-.72-.8-1.58-.8-2.52,0-.56.09-1.16.29-1.78,1.28-4.2,5.93-6.71,12.42-6.71Z"/>
    <path class="st4" d="M409.08,17.68c-.24.18-22.49,17.72-22.49,17.72l5.45-17.72h-23.45s-18.02,58.84-18.35,59.95h23.46c.18-.6,7.44-24.36,7.44-24.36,0,0,16.84,23.99,17.1,24.36h25.05c-.92-1.32-21.51-30.7-21.51-30.7,0,0,33.69-27.78,35.49-29.25h-28.19Z"/>
    <path class="st4" d="M418.83,47.64h0c-2.55,8.34-1.58,16.15,2.73,21.98,4.87,6.59,13.63,10.21,24.65,10.21,25.93,0,40.56-10.01,47.43-32.44,2.55-8.34,1.58-16.14-2.73-21.97-4.87-6.59-13.63-10.22-24.65-10.22-23.83,0-41.12,11.83-47.43,32.44ZM441.79,60.79c-2.05-2.76-2.11-7.15-.2-13.39h0c2.32-7.59,7.62-16.64,19.64-16.64,4.62,0,7.7,1.14,9.45,3.5,2.05,2.76,2.11,7.15.2,13.39-2.32,7.59-7.61,16.64-19.64,16.64-4.62,0-7.71-1.14-9.45-3.5Z"/>
    <path class="st4" d="M497.08,47.64h0c-2.55,8.34-1.58,16.15,2.73,21.98,4.87,6.59,13.63,10.22,24.66,10.22,25.93,0,40.55-10.01,47.42-32.44,2.55-8.34,1.58-16.14-2.73-21.97-4.87-6.59-13.63-10.22-24.65-10.22-23.83,0-41.12,11.83-47.42,32.44ZM539.48,30.76c4.62,0,7.71,1.14,9.45,3.5,2.04,2.76,2.11,7.15.19,13.39-2.32,7.59-7.61,16.64-19.64,16.64-4.62,0-7.7-1.14-9.45-3.5-2.04-2.77-2.11-7.15-.2-13.39h0c2.32-7.59,7.62-16.64,19.65-16.64Z"/>
    <path class="st4" d="M624.86,17.16c-.24.2-22.82,19.27-22.82,19.27l5.87-19.27h-23.45s-18.31,59.79-18.65,60.9h23.45c.18-.6,7.56-24.74,7.56-24.74,0,0,18.14,24.41,18.4,24.74h25.73c-1-1.34-23.05-30.98-23.05-30.98,0,0,31.82-28.45,33.63-29.93h-26.67Z"/>
    <path class="st2" d="M139.1,7.88l-.31-2.88h-19.89c2.28,23.49-13.92,49.68-36.99,55.92h0s-.03.01-.04.02c-.12.03-.42.05-.45-.3-.01-.12.04-.24.13-.31h-.02c19.24-12.85,29.39-33.54,27.65-55.33h-19.48c.85,19.15-12,36.57-31.65,43.64-.13.03-.41.04-.45-.3,0-.12.06-.22.15-.28h-.01c14.19-9.73,22.74-24.2,22.24-43.06h-19.48c-.19,22.58-20.49,38.35-60.23,38.35.57.31,1.13.62,1.67.94,25.86,14.13,39.34,22.82,58.43,38.37,2.93,2.52,7.02,3.9,11.13,3.76,51.51-3.59,70.04-48.78,67.6-78.55Z"/>
  </g>
  <g class="st6">
    <path class="st7" d="M258.02,88.88s-1.92,6.18-2.38,7.66c-2.42-1.48-5.36-2.17-9.17-2.17-8.81,0-15.83,4.33-17.88,11.02-.92,2.96-.66,5.42.77,7.31,1.79,2.37,5.31,3.62,10.19,3.62,3.74,0,7.25-.7,10.66-2.12-.08.27-.52,1.72-.52,1.72h6.95l8.94-29.1-7.56,2.07ZM235.58,110.38c-.79-1.05-.89-2.56-.29-4.48h0c1.52-5,5.19-7.54,10.91-7.54,4.04,0,6.79,1.16,8.16,2.36-.25.82-2.61,8.48-2.78,9-3.24,1.73-6.61,2.62-10.03,2.62-2.93,0-5-.68-5.97-1.96Z"/>
    <path class="st7" d="M273.97,96.27c.03-.13.46-1.48.46-1.48h-6.96l-6.49,21.13h6.91l3.72-12c1.05-3.44,4.39-5.41,9.13-5.41,2.62,0,4.03.36,5.08.7l.52.17,3.27-4.19-1.23-.31c-1.38-.35-3.22-.51-5.81-.51-3.01,0-6.18.72-8.62,1.89Z"/>
    <path class="st7" d="M291.18,89.81v.02c-.18.57-.07,1.17.31,1.67.66.86,2.02,1.36,3.74,1.36,2.09,0,4.52-.93,4.99-2.5.18-.59.06-1.2-.33-1.72-.64-.84-1.94-1.34-3.49-1.34-2.55,0-4.74,1.05-5.23,2.51ZM290.8,94.79l-6.54,21.13h6.95l6.5-21.13h-6.91Z"/>
    <path class="st7" d="M325.24,94.79s-14.17,15.37-14.32,15.54c-.75-2.48-4.71-15.54-4.71-15.54h-7.33l7.77,21.13h5.52l20.83-21.13h-7.76Z"/>
    <path class="st7" d="M334.24,89.8v.02c-.19.57-.07,1.16.3,1.66.66.87,2.03,1.36,3.76,1.36,2.08,0,4.51-.93,4.98-2.49.18-.6.06-1.21-.34-1.73-.64-.83-1.94-1.33-3.49-1.33-2.53,0-4.73,1.05-5.21,2.5ZM333.86,94.79l-6.53,21.13h6.95l6.49-21.13h-6.91Z"/>
    <path class="st7" d="M351.95,96.35c.05-.17.47-1.56.47-1.56h-6.95l-6.49,21.13h6.9l3.69-11.96c1.11-3.55,4.88-5.59,10.34-5.59,3.1,0,5.09.54,5.9,1.61.57.76.62,1.91.13,3.44l-3.84,12.5h6.95l3.84-12.45c.71-2.31.49-4.25-.65-5.76-1.67-2.22-5.25-3.34-10.61-3.34-3.59,0-6.95.7-9.69,1.97Z"/>
    <path class="st7" d="M374.47,105.4c-.41,1.34-.59,2.57-.52,3.7.08,1.37.51,2.58,1.29,3.61,1.79,2.37,5.31,3.62,10.18,3.62,3.74,0,7.24-.7,10.65-2.12-1.34,3.44-4.41,5.03-16.15,5.21l-1.16.02,1.75,3.68h.53c6.94-.12,12.01-.91,15.51-2.42,3.48-1.5,5.65-3.81,6.63-7.05l5.82-18.86h-6.96s-.34,1.15-.53,1.76c-2.42-1.47-5.36-2.17-9.17-2.17-8.81,0-15.83,4.33-17.88,11.02ZM381.47,110.38c-.79-1.05-.88-2.56-.29-4.48h0c1.52-5.01,5.18-7.54,10.9-7.54,4.05,0,6.79,1.16,8.15,2.36-.25.82-2.61,8.48-2.77,9-3.24,1.73-6.61,2.62-10.03,2.62-2.94,0-5-.68-5.97-1.96Z"/>
    <path class="st7" d="M420.88,104.99c-.38,1.21-.53,2.35-.47,3.4.08,1.38.53,2.62,1.35,3.7,2.88,3.81,9.17,4.22,11.74,4.22,5.6,0,9.16-.78,14.16-2.3l1.13-.35-3.05-3.31-.48.15c-3.91,1.24-6.48,1.84-10.56,1.84-3.13,0-5.4-.74-6.57-2.13-.54-.63-.83-1.4-.88-2.29-.02-.27,0-.55.02-.84h24.39l.21-.34c.28-.46.52-.91.76-1.69.34-1.07.48-2.1.42-3.07-.07-1.31-.51-2.51-1.29-3.56-2-2.64-6.08-4.04-11.79-4.04-9.47,0-17.14,4.27-19.1,10.62ZM439.23,98.37c3.22,0,5.49.68,6.56,1.97.46.55.71,1.22.75,2.01.02.28,0,.58-.04.88h-17.87c1.98-3.15,5.69-4.87,10.6-4.87Z"/>
    <path class="st7" d="M482.93,97.45c-1.32-1.53-3.97-3.08-9.3-3.08-3.33,0-6.33.65-8.81,1.87.03-.12.44-1.46.44-1.46h-6.95l-6.5,21.13h6.91l3.68-11.96c1.15-3.71,4.32-5.59,9.42-5.59,2.73,0,4.47.48,5.19,1.44.57.76.59,1.97.08,3.61,0,0-3.85,12.5-3.85,12.5h6.95l3.68-11.96c1.15-3.71,4.32-5.59,9.41-5.59,2.79,0,4.48.46,5.2,1.4.57.75.59,1.95.08,3.66l-3.85,12.5h6.95l3.83-12.45c.74-2.44.52-4.44-.63-5.96-1.6-2.11-4.86-3.14-9.93-3.14-6.09,0-9.62,1.57-12.02,3.08Z"/>
    <path class="st7" d="M514.58,97.07c-3.82,1.91-6.38,4.69-7.41,8.02h0c-.81,2.63-.49,5.01.93,6.87,2.13,2.8,6.62,4.35,12.64,4.35,4.64,0,9.12-.98,12.62-2.75,3.83-1.94,6.4-4.74,7.42-8.09.8-2.61.49-4.95-.91-6.79-2.11-2.78-6.62-4.31-12.69-4.31-4.72,0-9.07.93-12.6,2.7ZM514.44,110.01c-.83-1.1-.96-2.6-.4-4.45h0c1.4-4.57,5.9-7.2,12.35-7.2,3.53,0,6.1.82,7.23,2.32.81,1.07.94,2.53.39,4.34-1.41,4.58-6.07,7.32-12.47,7.32-3.45,0-5.97-.83-7.11-2.33Z"/>
    <path class="st7" d="M549.8,88.89s-1.55,5.04-1.81,5.9h-4.61l-1.14,3.92h4.54c-.55,1.78-3.75,12.14-3.75,12.14-.22.69-.3,1.32-.27,1.89.03.66.24,1.24.62,1.74.95,1.26,2.89,1.85,6.11,1.85,2.72,0,4.81-.2,7.19-.68l.36-.07,1.97-4.21-1.6.33c-1.63.34-3.07.55-5.23.55-1.86,0-2.23-.29-2.29-.38-.02-.03-.13-.22.07-.93,0,.02,3.05-9.84,3.79-12.21h9.13l1.2-3.92h-9.16c.48-1.56,2.46-7.97,2.46-7.97l-7.56,2.07Z"/>
    <path class="st7" d="M567.74,89.8v.02c-.18.57-.07,1.17.32,1.67.66.86,2.02,1.36,3.75,1.36,2.08,0,4.51-.93,4.99-2.5.18-.6.06-1.21-.34-1.72-.64-.84-1.95-1.34-3.49-1.34-2.54,0-4.73,1.05-5.22,2.5ZM567.36,94.79l-6.53,21.13h6.95l6.49-21.13h-6.91Z"/>
    <path class="st7" d="M581.26,97.07c-3.82,1.91-6.38,4.69-7.41,8.02h0c-.81,2.63-.49,5.01.93,6.87,2.12,2.81,6.61,4.35,12.64,4.35,4.64,0,9.12-.98,12.62-2.75,3.83-1.94,6.4-4.74,7.42-8.09.8-2.61.49-4.95-.91-6.79-2.11-2.78-6.62-4.31-12.69-4.31-4.72,0-9.08.93-12.6,2.7ZM593.07,98.37c3.53,0,6.09.82,7.22,2.32.81,1.07.94,2.53.38,4.34-1.4,4.58-6.05,7.32-12.46,7.32-3.45,0-5.97-.83-7.1-2.32-.44-.59-.69-1.29-.74-2.1-.04-.71.07-1.5.33-2.36,1.4-4.57,5.91-7.2,12.36-7.2Z"/>
    <path class="st7" d="M619.64,96.35c.05-.17.48-1.56.48-1.56h-6.95l-6.49,21.13h6.91l3.68-11.96c1.57-5.04,7.75-5.59,10.34-5.59,3.11,0,5.09.54,5.9,1.62.57.76.62,1.91.14,3.43,0,0-3.85,12.5-3.85,12.5h6.96l3.83-12.45c.71-2.31.49-4.25-.65-5.76-1.67-2.21-5.25-3.33-10.61-3.33-3.58,0-6.94.7-9.69,1.97Z"/>
  </g>
  <g class="st6">
    <path class="st0" d="M195.68,17.9c-.18.6-6.52,21.34-6.52,21.34h-20.3l6.54-21.34h-23.22s-17.53,57.31-17.87,58.41h23.19c.2-.6,7.5-24.49,7.5-24.49h20.3s-7.18,23.42-7.5,24.49h23.2c.19-.6,17.55-57.31,17.89-58.41h-23.22Z"/>
    <path class="st0" d="M317.73,24.26l-1.05.79,2.17-7.15h-23.21s-17.53,57.31-17.88,58.41h23.22c.18-.6,10.79-35.27,10.79-35.27,1.51-4.89,5.34-8.2,9.55-8.2h5.94c1.89,0,3.35.64,4.24,1.84.66.89,1,2.06,1,3.41,0,.98-.16,2.04-.52,3.18,0,0-9.35,30.57-10.71,35.03h23.21c.19-.6,12.6-41.17,12.6-41.17.36-1.18.87-3.26.87-5.64s-.53-5.15-2.29-7.52c-2.58-3.51-7.16-5.26-13.59-5.26-12.4,0-20.56,4.72-24.34,7.54"/>
    <path class="st0" d="M225.82,22.1c.22.72,3.35,11.56,3.59,12.4,2.06-.84,10.76-4.24,18.28-4.24s11.24.97,12.79,3.04c.78,1.05.89,2.39.39,4.07l-1.45,4.75-.42-.13c-9.77-3.22-17.21-3.12-17.28-3.12-7.75,0-14.73,1.93-20.17,5.6-5.22,3.51-8.93,8.5-10.75,14.45-1.61,5.25-1.21,9.7,1.16,12.9,2.74,3.72,8.18,5.68,15.69,5.68,7.1,0,14.83-1.84,21.78-5.16l.89-.44s-1.1,3.57-1.35,4.4h23.22c.18-.6,12.35-40.37,12.35-40.37.51-1.67.76-3.28.76-4.78,0-2.54-.71-4.82-2.13-6.74-3.73-5.03-12.34-7.7-24.89-7.7-15.37,0-29.91,4.55-32.44,5.37M244.22,50.83c1.76,0,7.81.14,11.55,1.89l.33.16-2.6,8.5-.17.08c-3.71,1.74-8.92,2.9-12.99,2.9s-6.64-.91-7.9-2.63c-.52-.71-.8-1.55-.8-2.49,0-.55.09-1.14.3-1.76,1.25-4.15,5.86-6.64,12.28-6.64"/>
    <path class="st0" d="M408.21,17.61c-.24.18-22.24,17.52-22.24,17.52l5.38-17.52h-23.18s-17.82,58.19-18.14,59.29h23.19c.17-.61,7.36-24.1,7.36-24.1,0,0,16.65,23.73,16.91,24.1h24.78c-.91-1.31-21.28-30.37-21.28-30.37,0,0,33.32-27.47,35.09-28.93h-27.86Z"/>
    <path class="st0" d="M417.84,47.23h0c-2.52,8.25-1.55,15.97,2.71,21.73,4.82,6.51,13.46,10.1,24.38,10.1,25.63,0,40.1-9.89,46.89-32.08,2.53-8.25,1.57-15.96-2.7-21.73-4.82-6.51-13.47-10.1-24.37-10.1-23.58,0-40.66,11.69-46.91,32.07M440.54,60.23c-2.01-2.73-2.08-7.06-.19-13.23,2.3-7.52,7.53-16.46,19.44-16.46,4.55,0,7.6,1.13,9.34,3.46,2.01,2.73,2.08,7.07.19,13.24-2.3,7.51-7.51,16.46-19.42,16.46-4.57,0-7.63-1.12-9.36-3.46"/>
    <path class="st0" d="M495.22,47.23h0c-2.52,8.25-1.57,15.97,2.7,21.73,4.82,6.51,13.49,10.1,24.37,10.1,25.66,0,40.12-9.89,46.91-32.08,2.53-8.25,1.57-15.96-2.72-21.72-4.8-6.51-13.46-10.1-24.37-10.1-23.56,0-40.66,11.69-46.89,32.07M537.15,30.54c4.56,0,7.61,1.13,9.35,3.46,2.01,2.73,2.08,7.07.18,13.24-2.29,7.51-7.52,16.46-19.42,16.46-4.56,0-7.61-1.12-9.34-3.45-2.01-2.74-2.08-7.08-.18-13.24,2.29-7.52,7.53-16.46,19.42-16.46"/>
    <path class="st0" d="M621.58,17.09c-.25.19-22.57,19.06-22.57,19.06l5.79-19.06h-23.19s-18.1,59.13-18.43,60.23h23.18c.17-.61,7.48-24.46,7.48-24.46,0,0,17.93,24.14,18.2,24.46h25.44c-1-1.34-22.79-30.63-22.79-30.63,0,0,31.46-28.13,33.25-29.6h-26.36Z"/>
    <path class="st1" d="M141.24,7.91l-.31-2.84h-19.66c2.25,23.22-13.76,49.12-36.58,55.3-.02,0-.04,0-.04,0-.13.03-.43.05-.46-.29-.01-.12.03-.24.13-.3h-.01c19.03-12.71,29.05-33.17,27.35-54.71h-19.27c.85,18.93-11.86,36.17-31.29,43.15-.13.03-.41.05-.45-.28,0-.13.06-.23.15-.29h-.01c14.03-9.63,22.49-23.93,21.98-42.58h-19.25c-.18,22.32-20.26,37.93-59.56,37.93.56.31,1.11.62,1.65.93,25.57,13.98,38.9,22.57,57.78,37.95,2.89,2.49,6.94,3.85,11,3.71,50.93-3.55,69.27-48.24,66.84-77.67"/>
    <path class="st5" d="M258.83,88.03s-1.89,6.11-2.35,7.57c-2.4-1.46-5.31-2.15-9.07-2.15-8.71,0-15.65,4.27-17.69,10.9-.9,2.93-.64,5.35.78,7.22,1.76,2.34,5.24,3.58,10.08,3.58,3.69,0,7.16-.7,10.53-2.1-.09.27-.51,1.7-.51,1.7h6.87l8.83-28.77-7.47,2.05ZM236.65,109.28c-.78-1.03-.89-2.53-.3-4.44,1.51-4.94,5.15-7.44,10.8-7.44,3.99,0,6.71,1.14,8.05,2.33-.24.81-2.57,8.38-2.73,8.9-3.2,1.72-6.53,2.58-9.92,2.58-2.91,0-4.95-.66-5.9-1.93"/>
    <path class="st5" d="M274.6,95.32c.03-.12.46-1.46.46-1.46h-6.89l-6.42,20.89h6.84l3.68-11.86c1.04-3.39,4.33-5.35,9.03-5.35,2.61,0,4,.37,5.02.7l.53.17,3.24-4.15-1.22-.3c-1.36-.34-3.19-.5-5.74-.5-2.97,0-6.11.71-8.52,1.87"/>
    <path class="st5" d="M291.63,88.93v.02c-.19.56-.08,1.16.3,1.64.65.85,1.99,1.35,3.69,1.35,2.07,0,4.47-.93,4.94-2.47.18-.6.06-1.2-.32-1.69-.64-.84-1.92-1.33-3.45-1.33-2.52,0-4.69,1.04-5.16,2.48M291.25,93.85l-6.47,20.89h6.87l6.43-20.89h-6.83Z"/>
    <path class="st5" d="M325.29,93.85s-14,15.21-14.15,15.37c-.74-2.45-4.67-15.37-4.67-15.37h-7.25l7.69,20.89h5.47l20.6-20.89h-7.69Z"/>
    <path class="st5" d="M334.19,88.93v.03c-.17.56-.06,1.16.32,1.64.65.85,2,1.35,3.71,1.35,2.06,0,4.46-.93,4.93-2.46.17-.6.06-1.21-.33-1.72-.63-.83-1.92-1.31-3.45-1.31-2.51,0-4.68,1.04-5.17,2.47M333.82,93.85l-6.45,20.89h6.87l6.41-20.89h-6.83Z"/>
    <path class="st5" d="M351.71,95.39c.06-.17.47-1.54.47-1.54h-6.86l-6.42,20.89h6.83l3.65-11.83c1.08-3.51,4.82-5.52,10.21-5.52,3.08,0,5.03.53,5.83,1.59.57.74.6,1.89.14,3.39l-3.81,12.36h6.88l3.79-12.29c.71-2.3.49-4.2-.64-5.7-1.66-2.2-5.18-3.31-10.49-3.31-3.55,0-6.86.69-9.58,1.95"/>
    <path class="st5" d="M373.99,104.35c-.41,1.32-.59,2.54-.53,3.65.07,1.36.5,2.55,1.28,3.57,1.76,2.35,5.24,3.58,10.07,3.58,3.69,0,7.15-.69,10.52-2.09-1.33,3.4-4.36,4.98-15.98,5.16l-1.15.02,1.74,3.65h.52c6.85-.13,11.87-.91,15.34-2.4,3.43-1.49,5.58-3.77,6.56-6.98l5.75-18.65h-6.89s-.33,1.14-.52,1.74c-2.38-1.46-5.3-2.15-9.06-2.15-8.72,0-15.66,4.27-17.68,10.9M380.91,109.28c-.78-1.03-.89-2.53-.28-4.43,1.49-4.95,5.12-7.45,10.78-7.45,4.01,0,6.71,1.14,8.07,2.31-.25.83-2.59,8.4-2.76,8.91-3.19,1.72-6.53,2.58-9.92,2.58-2.9,0-4.94-.66-5.89-1.93"/>
    <path class="st5" d="M419.87,103.95c-.36,1.2-.53,2.32-.46,3.36.07,1.37.52,2.6,1.33,3.66,2.85,3.77,9.07,4.17,11.61,4.17,5.53,0,9.05-.76,14-2.28l1.12-.34-3.02-3.28-.48.16c-3.85,1.23-6.39,1.81-10.43,1.81-3.09,0-5.35-.72-6.49-2.1-.52-.62-.82-1.38-.87-2.27-.01-.27,0-.55.04-.83h24.1l.22-.34c.27-.44.52-.9.75-1.67.33-1.06.48-2.07.41-3.03-.07-1.3-.49-2.49-1.27-3.51-1.98-2.62-6-4-11.67-4-9.35,0-16.95,4.22-18.88,10.5M438.02,97.4c3.18,0,5.42.66,6.49,1.94.46.55.69,1.21.73,1.99.02.27,0,.59-.04.88h-17.67c1.96-3.12,5.62-4.81,10.49-4.81"/>
    <path class="st5" d="M481.23,96.49c-1.3-1.5-3.92-3.04-9.21-3.04-3.28,0-6.25.64-8.7,1.85.04-.11.45-1.45.45-1.45h-6.86l-6.43,20.89h6.83l3.65-11.83c1.13-3.67,4.27-5.52,9.31-5.52,2.7,0,4.42.47,5.14,1.42.56.75.58,1.95.07,3.56,0,.01-3.81,12.36-3.81,12.36h6.89l3.63-11.83c1.13-3.67,4.27-5.52,9.31-5.52,2.74,0,4.43.45,5.14,1.38.57.74.58,1.93.07,3.61l-3.81,12.35h6.88l3.79-12.29c.73-2.42.52-4.4-.62-5.9-1.59-2.09-4.8-3.11-9.82-3.11-6.03,0-9.51,1.55-11.88,3.04"/>
    <path class="st5" d="M512.54,96.12c-3.77,1.89-6.32,4.63-7.32,7.93-.8,2.61-.49,4.97.92,6.8,2.09,2.77,6.53,4.3,12.48,4.3,4.59,0,9.03-.96,12.48-2.72,3.8-1.93,6.32-4.68,7.34-8.01.79-2.57.48-4.9-.89-6.71-2.09-2.75-6.54-4.27-12.56-4.27-4.67,0-8.98.92-12.46,2.67M512.39,108.91c-.83-1.08-.96-2.56-.4-4.4,1.4-4.52,5.85-7.11,12.22-7.11,3.5,0,6.04.8,7.15,2.29.81,1.05.94,2.5.39,4.29-1.39,4.53-5.99,7.23-12.33,7.23-3.4,0-5.9-.81-7.02-2.3"/>
    <path class="st5" d="M547.35,88.03s-1.54,4.98-1.8,5.83h-4.55l-1.13,3.87h4.5c-.54,1.77-3.71,12.01-3.71,12.01-.22.69-.31,1.3-.28,1.87.04.65.25,1.24.62,1.73.92,1.24,2.85,1.82,6.04,1.82,2.69,0,4.75-.2,7.1-.67l.35-.08,1.95-4.16-1.58.32c-1.61.34-3.04.54-5.18.54-1.83,0-2.2-.29-2.26-.38-.04-.03-.13-.22.07-.92,0,.02,3.02-9.72,3.75-12.08h9.01l1.2-3.87h-9.07c.49-1.54,2.45-7.87,2.45-7.87l-7.48,2.05Z"/>
    <path class="st5" d="M565.09,88.93v.03c-.17.56-.05,1.16.31,1.64.65.85,2.01,1.35,3.71,1.35,2.05,0,4.45-.93,4.92-2.47.18-.6.07-1.2-.33-1.69-.63-.84-1.91-1.33-3.44-1.33-2.51,0-4.69,1.04-5.17,2.47M564.72,93.85l-6.46,20.89h6.86l6.42-20.89h-6.82Z"/>
    <path class="st5" d="M578.45,96.12c-3.77,1.88-6.3,4.63-7.3,7.93-.82,2.61-.5,4.97.91,6.8,2.08,2.77,6.53,4.29,12.48,4.29,4.59,0,9.03-.96,12.49-2.72,3.79-1.92,6.32-4.68,7.34-8,.79-2.57.48-4.9-.89-6.71-2.08-2.75-6.54-4.27-12.56-4.27-4.65,0-8.97.92-12.46,2.67M590.14,97.4c3.48,0,6.02.8,7.14,2.29.8,1.05.92,2.5.38,4.3-1.37,4.52-6,7.22-12.32,7.22-3.41,0-5.91-.81-7.02-2.29-.45-.59-.69-1.27-.72-2.08-.05-.7.06-1.48.32-2.33,1.38-4.52,5.85-7.11,12.23-7.11"/>
    <path class="st5" d="M616.41,95.39c.06-.17.47-1.54.47-1.54h-6.86l-6.43,20.89h6.83l3.65-11.83c1.55-4.99,7.66-5.52,10.23-5.52,3.08,0,5.03.53,5.83,1.59.56.74.61,1.89.14,3.39,0,.01-3.81,12.36-3.81,12.36h6.89l3.78-12.29c.7-2.3.48-4.21-.64-5.71-1.66-2.19-5.18-3.3-10.5-3.3-3.53,0-6.85.69-9.57,1.95"/>
  </g>
  <g>
    <g>
      <path class="st8" d="M256.44,115.67l2.12-7.26c2.21-7.68,7.18-10.38,14.38-10.38,2.49,0,6.36.72,7.72,1.63l3.04-10.28,5.67-1.44-10.69,37.19h-4.77l.04-2.07c-3.4,1.64-6.28,2.55-9.88,2.55-7.37,0-9.2-4.61-7.64-9.94M279.53,103.75c-1.57-1.01-4.4-1.49-6.2-1.49-4.61,0-7.94,1.3-9.5,6.63l-1.85,6.39c-1.19,3.99-.18,6.05,3.58,6.05,2.81,0,6.58-.91,9.56-2.45l4.4-15.13Z"/>
      <path class="st8" d="M307.99,102.89c-3.25.19-7.02,1.01-10.23,2.93l-5.5,19.31h-5.3l7.62-26.52h4.72l-.25,2.69c2-1.34,5.86-3.27,10.36-3.27l-1.42,4.85Z"/>
      <path class="st8" d="M312.66,125.13h-5.3l7.62-26.52h5.3l-7.62,26.52ZM321.71,93.66h-5.3l1.51-5.33h5.3l-1.51,5.33Z"/>
      <path class="st8" d="M333.48,125.13h-6.15l-2.23-26.52h5.46l.81,16.33c.03,1.68.07,3.41.16,5.67h.05c1.44-2.26,2.41-3.99,3.54-5.67l10.21-16.33h5.67l-17.53,26.52Z"/>
      <path class="st8" d="M353.04,125.13h-5.3l7.62-26.52h5.3l-7.62,26.52ZM362.08,93.66h-5.3l1.51-5.33h5.3l-1.51,5.33Z"/>
      <path class="st8" d="M384.57,125.13h-5.3l5.13-17.92c.92-3.12.78-4.85-2.71-4.85-2.54,0-6.04.77-9.4,2.45l-5.79,20.32h-5.3l7.62-26.52h4.72l-.05,2.06c3.14-1.58,6.55-2.64,9.63-2.64,6.41,0,8.29,3.27,6.87,8.17l-5.42,18.93Z"/>
      <path class="st8" d="M393.83,115.18l1.92-6.68c2.2-7.59,7.08-10.47,14.07-10.47,2.76,0,6.3.77,8.09,2.35l.93-1.78h4.71l-8.04,27.87c-1.91,6.53-5.46,9.37-14.84,9.37-2.44,0-5.54-.34-7.37-.72l1.2-4.08c1.88.44,4.51.67,6.36.67,5.93,0,8.25-1.2,9.48-5.72l.72-2.59c-2.85,1.3-6.24,2.02-9.63,2.02-7.42,0-9.25-4.61-7.62-10.24M416.63,104.23c-1.08-1.2-3.99-1.97-7.12-1.97-3.55,0-6.89,1.39-8.44,6.73l-1.71,5.86c-1.27,4.27-.41,6.29,3.78,6.29,3.02,0,6.15-.77,9.16-1.97l4.33-14.94Z"/>
      <path class="st8" d="M463.91,113.31h-19.08l-.29,1.06c-1.27,4.27-.68,7.06,6.26,7.06,2.22,0,5.42-.24,8.46-1.15l-1.19,3.99c-2.67.96-5.66,1.34-8.1,1.34-9.38,0-12.79-3.99-10.38-12.39l.86-2.98c2.56-8.84,8.1-12.2,15.1-12.2,7.63,0,11.71,3.65,9,13.07l-.64,2.21ZM459.85,109.52l.08-.34c1.08-3.94.2-7.06-4.99-7.06s-7.81,3.12-8.89,7.06l-.08.34h13.88Z"/>
      <path class="st8" d="M505.49,125.13h-5.3l5.21-18.16c.92-3.12.39-4.61-2.63-4.61-2.12,0-4.88.82-8.13,2.45l-.22.87-5.57,19.46h-5.3l5.21-18.16c.92-3.12.39-4.61-2.68-4.61-2.12,0-4.72.77-8.07,2.45l-5.79,20.32h-5.3l7.62-26.52h4.71l-.04,2.06c2.87-1.54,6.18-2.64,8.88-2.64,3.71,0,5.8,1.06,6.5,3.07,3.69-1.92,7.65-3.07,10.14-3.07,6.04,0,7.75,2.69,6.33,7.64l-5.56,19.46Z"/>
      <path class="st8" d="M540.35,113.7c-2.21,7.73-7.5,11.92-15.5,11.92s-11.75-4.57-9.53-12.3l.99-3.36c2.21-7.74,7.5-11.91,15.45-11.91s11.8,4.56,9.59,12.3l-.99,3.36ZM536.05,110.14c1.64-5.72-.53-7.93-4.98-7.93s-7.85,2.21-9.49,7.93l-.99,3.36c-1.64,5.72.58,7.93,4.93,7.93s7.9-2.21,9.54-7.93l.99-3.36Z"/>
      <path class="st8" d="M565.21,102.79h-7.58l-4.28,14.94c-.71,2.5-.42,3.55,1.8,3.55,1.64,0,3.52-.24,4.98-.76l-1.19,3.99c-1.54.82-4,1.1-5.7,1.1-4.66,0-6.76-2.45-5.55-6.67l4.63-16.14h-4.66l1.26-4.18h4.66l1.57-5.48,5.67-1.44-1.94,6.92h7.58l-1.26,4.18Z"/>
      <path class="st8" d="M570.19,125.13h-5.3l7.62-26.52h5.3l-7.62,26.52ZM579.23,93.66h-5.3l1.51-5.33h5.3l-1.51,5.33Z"/>
      <path class="st8" d="M605.42,113.7c-2.21,7.73-7.5,11.92-15.5,11.92s-11.75-4.57-9.54-12.3l.99-3.36c2.21-7.74,7.5-11.91,15.45-11.91s11.8,4.56,9.59,12.3l-.99,3.36ZM601.12,110.14c1.64-5.72-.53-7.93-4.98-7.93s-7.85,2.21-9.49,7.93l-.99,3.36c-1.64,5.72.58,7.93,4.93,7.93s7.9-2.21,9.54-7.93l.99-3.36Z"/>
      <path class="st8" d="M632.19,125.13h-5.3l5.13-17.92c.92-3.12.78-4.85-2.72-4.85-2.54,0-6.04.77-9.4,2.45l-5.79,20.32h-5.3l7.62-26.52h4.72l-.05,2.06c3.14-1.58,6.55-2.64,9.63-2.64,6.41,0,8.29,3.27,6.87,8.17l-5.42,18.93Z"/>
    </g>
    <path d="M354.07,28.23l-13.28,47.12h-21.74l12.03-42.7c1.01-3.67,1.7-6.61.24-8-1.3-1.24-3.19-1.4-5.52-1.4l-11.28.34-14.87,51.76h-21.73l18.91-66.04c2.58-.13,21.9-1.05,41.1-1.49,7.36-.19,12.43,1.47,15.12,4.91,2.65,3.41,3,8.63,1.03,15.5"/>
    <path d="M405.82,43.68l13.43,31.67h-22.62l-12.16-32.99-9.32,32.99h-21.75l18.99-66.06h21.73l-8.35,28.65s13.34-7.03,23.84-28.65h22.99c-11.04,23.67-26.77,34.4-26.77,34.4"/>
    <path d="M624.54,43.68l13.43,31.67h-22.62l-12.16-32.99-9.32,32.99h-21.75l18.99-66.06h21.73l-8.35,28.65s13.33-7.03,23.84-28.65h22.99c-11.04,23.67-26.77,34.4-26.77,34.4"/>
    <path d="M495.29,15.84c-4.06-5.36-12.03-8.08-23.66-8.08-22.56,0-36.88,10.05-42.56,29.86l-2.78,9.64c-2.7,9.38-2.16,16.63,1.57,21.54,4.07,5.36,12.03,8.08,23.66,8.08,22.56,0,36.88-10.05,42.55-29.86l2.78-9.65c2.7-9.37,2.16-16.62-1.57-21.53M474.81,38.46l-2.29,7.97c-3.03,10.53-7.9,15.02-16.3,15.02-3.78,0-6.31-.92-7.74-2.78-1.84-2.42-1.89-6.39-.14-12.48l2.29-7.98c3.03-10.52,7.9-15.01,16.3-15.01,3.78,0,6.31.9,7.73,2.77,1.84,2.43,1.89,6.4.14,12.49"/>
    <path d="M571.64,15.84c-4.07-5.36-12.03-8.08-23.66-8.08-22.56,0-36.88,10.05-42.56,29.86l-2.78,9.64c-2.69,9.38-2.16,16.63,1.57,21.54,4.07,5.36,12.03,8.08,23.67,8.08,22.56,0,36.87-10.05,42.54-29.86l2.78-9.65c2.7-9.37,2.17-16.62-1.57-21.53M551.17,38.46l-2.29,7.97c-3.02,10.53-7.9,15.02-16.3,15.02-3.78,0-6.31-.92-7.72-2.78-1.84-2.42-1.89-6.39-.16-12.48l2.29-7.98c3.03-10.52,7.91-15.01,16.3-15.01,3.78,0,6.31.9,7.73,2.77,1.84,2.43,1.89,6.4.14,12.49"/>
    <path d="M278.49,16.5c-1.66-3.08-4.72-5.28-9.34-6.72-3.53-1.08-8.04-1.72-13.42-1.91-.19,0-19.48-.31-31.1,1.96l-3.7,13.11c11.72-1.33,22.83-1.71,27.62-1.55,5.2.17,7.68.85,8.84,2.42,1,1.35,1.09,3.37,0,6.95l-.71,2.6h-8.24c-23.01,0-36.59,2.94-40.8,18.42-1.61,5.95-.86,12.18,2.51,16.57,3.61,4.72,8.5,7.01,16.87,7.01h38.85l12.56-43.17c2.05-6.83,2.07-11.95.06-15.68M248.39,61.89l-10.6.31c-2.66,0-5.12.11-7.09-2-1.31-1.4-2.21-3.74-1.71-6.09,1.42-6.7,9.11-7.69,15.47-7.69h8.44l-4.5,15.47Z"/>
    <polygon points="189.44 9.3 182.33 34.26 162.86 34.26 169.97 9.3 148.08 9.3 129.17 75.35 151.02 75.35 158.56 49.3 178.03 49.3 170.49 75.35 192.42 75.35 211.32 9.3 189.44 9.3"/>
    <path class="st3" d="M116.39,0c-2.42,23.17-16.5,42.93-36.36,53.48-.56.3-1.08-.45-.6-.86,15.37-12.75,25.42-31.52,26.4-52.62h-19.49c-2.4,17.95-13.73,33.12-29.44,41.04-.55.28-1.05-.45-.59-.86,11.33-10.01,18.74-24.24,19.67-40.18h-19.53c-1.38,8.14-5.55,15.2-10.92,21.08C32.33,35.52,11.02,37.12.68,36.31c0,0-.49-.08-.64.31-.16.41.3.67.3.67,17.2,9.65,30.88,18.78,55.8,37.12,6.12,4.5,11.91,5.8,17.98,4.38,38.85-9.1,61.46-49.29,61.7-78.79h-19.43Z"/>
  </g>
</svg>